<svg version="1.0" xmlns="http://www.w3.org/2000/svg"
 width="649.000000pt" height="199.000000pt" viewBox="0 0 649.000000 199.000000"
 preserveAspectRatio="xMidYMid meet">

<g transform="translate(0.000000,199.000000) scale(0.100000,-0.100000)"
fill="#fff" stroke="none">
<path d="M3450 1840 l0 -150 1335 0 1335 0 0 150 0 150 -1335 0 -1335 0 0
-150z"/>
<path d="M746 1366 c-143 -61 -218 -205 -194 -376 15 -110 79 -199 176 -247
51 -25 67 -28 162 -28 101 0 108 1 168 34 73 40 125 98 153 170 l19 51 -78 0
-79 0 -24 -37 c-59 -92 -209 -109 -293 -35 -73 65 -73 239 0 304 84 74 234 57
293 -34 l24 -38 74 0 c82 0 83 1 52 70 -26 59 -91 125 -154 158 -41 21 -66 26
-145 29 -83 3 -102 1 -154 -21z"/>
<path d="M1622 1103 c-61 -153 -120 -302 -131 -331 l-21 -53 81 3 82 3 20 53
20 52 132 0 133 0 22 -55 22 -55 79 0 c44 0 79 1 79 3 0 1 -58 148 -129 327
l-129 325 -75 3 -75 3 -110 -278z m232 -33 l45 -115 -86 -3 c-47 -2 -88 -1
-91 2 -2 3 15 57 38 121 24 63 44 114 46 112 2 -1 23 -54 48 -117z"/>
<path d="M2430 1051 l0 -331 75 0 75 0 0 106 0 105 48 -3 47 -3 59 -102 59
-103 83 0 c46 0 84 3 84 6 0 5 -78 139 -117 200 -12 19 -10 23 26 47 102 68
113 258 19 343 -58 54 -81 59 -275 62 l-183 4 0 -331z m339 173 c26 -22 31
-33 31 -70 0 -78 -51 -109 -170 -102 l-55 3 -3 98 -3 97 85 0 c76 0 87 -3 115
-26z"/>
<path d="M4677 1249 c-33 -5 -85 -23 -119 -41 -236 -126 -231 -494 9 -616 56
-29 149 -45 214 -38 173 18 295 130 317 291 34 259 -156 441 -421 404z m169
-166 c138 -71 132 -300 -10 -364 -81 -37 -186 -18 -243 43 -95 102 -55 287 72
334 52 18 131 13 181 -13z"/>
<path d="M3560 903 l0 -338 202 5 c227 6 256 13 305 77 55 71 37 202 -32 247
l-27 18 25 26 c69 72 62 198 -14 254 -57 42 -91 48 -280 48 l-179 0 0 -337z
m347 195 c26 -26 22 -86 -6 -109 -19 -15 -40 -19 -107 -19 l-84 0 0 76 0 76
90 -4 c68 -2 93 -7 107 -20z m1 -264 c32 -22 43 -57 31 -94 -15 -43 -35 -50
-138 -50 l-91 0 0 80 0 80 88 0 c64 0 94 -4 110 -16z"/>
<path d="M5430 903 l0 -338 72 2 73 1 5 203 5 203 147 -204 147 -205 63 1 63
2 3 336 2 336 -75 0 -75 0 0 -201 c0 -110 -4 -198 -8 -195 -5 3 -73 93 -151
201 l-142 195 -65 0 -64 0 0 -337z"/>
<path d="M420 150 l0 -150 1338 2 1337 3 0 145 0 145 -1337 3 -1338 2 0 -150z"/>
</g>
</svg>
